<svg width="739" height="877" viewBox="0 0 739 877" fill="none" xmlns="http://www.w3.org/2000/svg">
<path d="M279.521 391.678V347.251C286.593 339.175 300.723 327.393 313.523 321.326C334.047 311.566 344.824 320.321 351.896 340.519C360.312 363.404 366.705 396.062 378.826 418.269C385.219 430.391 394.979 439.145 411.471 439.145C421.207 439.145 430.957 435.12 435.68 425.411C435.7 425.37 435.69 425.321 435.655 425.291L433.417 423.374C433.379 423.342 433.323 423.343 433.286 423.375C426.569 429.018 418.867 424.658 414.172 419.287C402.051 406.161 388.247 353.984 381.853 335.13C376.804 320.321 366.026 310.562 346.847 308.539C378.487 297.436 411.81 285.315 411.81 251.991C411.81 218.994 378.826 208.895 351.557 208.895H226V211.935C240.47 211.257 247.542 221.016 247.542 256.701V391.678C247.542 427.363 240.47 436.784 226 436.118V439.145H301.063V436.118C286.593 436.784 279.521 427.363 279.521 391.678ZM279.521 214.962H326.31C349.874 214.962 379.831 220.677 379.492 250.647C379.492 280.931 332.703 300.463 310.822 314.933C299.04 322.344 288.276 329.742 279.521 338.497V214.962Z" fill="#6C6C6C"/>
<path d="M439.678 444.971V292.115L476.452 275.722C471.135 332.079 476.304 412.332 479.553 444.971C487.706 486.087 529.915 484.551 550 478.643C536.177 493.53 512.635 494.003 502.593 492.378C460.059 486.353 442.927 458.262 439.678 444.971Z" fill="#6C6C6C"/>
<path d="M376.763 118.878C332.457 113.916 307.794 146.053 301 162.741C310.747 109.131 381.637 87.4209 450.311 134.385C497.719 166.806 494.027 234.665 481.326 262.873C494.44 257.202 499.343 263.611 500.377 265.974L423.285 300.09C422.576 294.773 434.314 282.811 441.45 268.19C477.781 193.755 432.146 125.081 376.763 118.878Z" fill="#6C6C6C"/>
<path d="M279.521 391.678V347.251C286.593 339.175 300.723 327.393 313.523 321.326C334.047 311.566 344.824 320.321 351.896 340.519C360.312 363.404 366.705 396.062 378.826 418.269C385.219 430.391 394.979 439.145 411.471 439.145C421.207 439.145 430.957 435.12 435.68 425.411C435.7 425.37 435.69 425.321 435.655 425.291L433.417 423.374C433.379 423.342 433.323 423.343 433.286 423.375C426.569 429.018 418.867 424.658 414.172 419.287C402.051 406.161 388.247 353.984 381.853 335.13C376.804 320.321 366.026 310.562 346.847 308.539C378.487 297.436 411.81 285.315 411.81 251.991C411.81 218.994 378.826 208.895 351.557 208.895H226V211.935C240.47 211.257 247.542 221.016 247.542 256.701V391.678C247.542 427.363 240.47 436.784 226 436.118V439.145H301.063V436.118C286.593 436.784 279.521 427.363 279.521 391.678ZM279.521 214.962H326.31C349.874 214.962 379.831 220.677 379.492 250.647C379.492 280.931 332.703 300.463 310.822 314.933C299.04 322.344 288.276 329.742 279.521 338.497V214.962Z" stroke="#6C6C6C" stroke-width="8"/>
<path d="M439.678 444.971V292.115L476.452 275.722C471.135 332.079 476.304 412.332 479.553 444.971C487.706 486.087 529.915 484.551 550 478.643C536.177 493.53 512.635 494.003 502.593 492.378C460.059 486.353 442.927 458.262 439.678 444.971Z" stroke="#6C6C6C" stroke-width="8"/>
<path d="M376.763 118.878C332.457 113.916 307.794 146.053 301 162.741C310.747 109.131 381.637 87.4209 450.311 134.385C497.719 166.806 494.027 234.665 481.326 262.873C494.44 257.202 499.343 263.611 500.377 265.974L423.285 300.09C422.576 294.773 434.314 282.811 441.45 268.19C477.781 193.755 432.146 125.081 376.763 118.878Z" stroke="#6C6C6C" stroke-width="8"/>
<path fill-rule="evenodd" clip-rule="evenodd" d="M106.634 7.00379L106.634 158.027C111.32 158.027 118.466 149.233 119.844 147.537C119.985 147.363 120.066 147.264 120.077 147.257L120 147.374C120.059 147.289 120.084 147.252 120.077 147.257C127.554 135.784 135.397 122.392 141.117 47.1914C142.129 33.8801 142.163 31.1199 143.391 29.0784C143.853 28.3111 144.484 27.6454 145.398 26.5591C148.5 22.8743 187.908 22.6098 256.867 23.5971C323.996 24.5582 349.695 66.5352 366.948 94.7159C367.396 95.448 367.839 96.1708 368.276 96.8833C418.64 93.4358 458.756 124.582 469.701 138.258C469.959 138.58 470.435 138.571 470.698 138.252C470.878 138.035 470.893 137.723 470.737 137.489C446.54 101.08 404.854 90.4146 383.782 90.4146C353.072 9.91203 306.393 7.8461 275.295 6.46975C274.164 6.41969 273.053 6.37054 271.965 6.31856C247.291 5.14019 165.875 3.5386 132.074 2.87367L132.074 2.87366L131.525 2.86285C127.182 2.31497 123.555 1.95603 120.466 1.65027C115.532 1.16206 111.969 0.809408 109.05 0.0396203C107.979 -0.242633 106.672 1.0379 106.729 2.14336C106.776 3.07028 106.733 4.06658 106.691 5.05038C106.662 5.71567 106.634 6.37525 106.634 7.00379ZM100.193 379.84C86.0997 322.233 90.263 261.67 112.107 206.534C114.141 201.399 111.628 195.588 106.493 193.553C101.358 191.519 95.547 194.032 93.5128 199.167C70.1415 258.159 65.687 322.957 80.766 384.593C95.845 446.228 129.712 501.651 177.678 543.19C225.644 584.73 285.337 610.33 348.495 616.449C411.652 622.567 475.149 608.9 530.197 577.341C585.244 545.781 629.12 497.889 655.749 440.294C682.378 382.699 690.445 318.251 678.831 255.87C667.218 193.489 636.5 136.26 590.928 92.1072C545.357 47.9539 487.186 19.0595 424.469 9.42351C419.01 8.58481 413.905 12.3302 413.067 17.7889C412.228 23.2477 415.973 28.3529 421.432 29.1916C480.05 38.1977 534.418 65.2036 577.011 106.471C619.604 147.738 648.315 201.226 659.169 259.53C670.023 317.834 662.484 378.07 637.595 431.901C612.707 485.731 571.699 530.493 520.249 559.99C468.8 589.487 409.452 602.26 350.423 596.542C291.394 590.823 235.602 566.896 190.771 528.072C145.94 489.247 114.287 437.447 100.193 379.84Z" fill="#6C6C6C"/>
<mask id="mask0_50_2" style="mask-type:luminance" maskUnits="userSpaceOnUse" x="322" y="465" width="93" height="102">
<path d="M322 465.147H415V566.602H322V465.147Z" fill="white"/>
</mask>
<g mask="url(#mask0_50_2)">
<path fill-rule="evenodd" clip-rule="evenodd" d="M368.764 465.25C368.794 465.191 368.838 465.162 368.882 465.162C368.926 465.162 368.984 465.191 368.999 465.25C370.1 468.273 378.54 490.995 385.849 498.892C393.144 506.744 412.96 514.553 415.631 515.581C415.675 515.595 415.704 515.654 415.704 515.698C415.704 515.742 415.675 515.786 415.631 515.801C412.93 516.872 392.675 524.96 385.394 532.827C378.099 540.695 370.1 563.005 369.014 566.117C368.984 566.161 368.94 566.205 368.882 566.205C368.838 566.205 368.794 566.161 368.779 566.102C367.869 563.005 361.278 541.091 353.998 533.238C346.688 525.342 324.818 516.828 322.117 515.801C322.059 515.786 322.044 515.742 322.029 515.683C322.029 515.639 322.059 515.595 322.103 515.566C324.715 514.392 345.558 504.778 352.868 496.881C360.163 489.013 367.737 468.141 368.764 465.25Z" fill="#6C6C6C"/>
</g>
<path d="M512.61 530.984L510.83 529.204C529.524 510.51 537.239 495.08 539.909 490.629C542.046 487.068 550.888 464.814 555.042 454.131C558.702 451.461 567.09 443.983 571.363 435.438C575.584 426.995 602.934 415.541 616.564 410.688C616.669 410.65 616.744 410.786 616.661 410.859C608.348 418.223 595.878 436.487 588.87 446.417C583.172 454.488 565.527 455.318 557.416 454.725C556.13 457.791 551.482 468.968 543.173 489.145C534.865 509.323 519.336 525.445 512.61 530.984Z" fill="#6C6C6C"/>
<path d="M552.965 452.054C558.9 447.702 566.971 429.028 551.778 389.148C544.36 405.864 534.212 441.847 552.965 452.054Z" fill="#6C6C6C"/>
<path d="M512.61 530.984L510.83 529.204C529.524 510.51 537.239 495.08 539.909 490.629C542.046 487.068 550.888 464.814 555.042 454.131C558.702 451.461 567.09 443.983 571.363 435.438C575.584 426.995 602.934 415.541 616.564 410.688C616.669 410.65 616.744 410.786 616.661 410.859C608.348 418.223 595.878 436.487 588.87 446.417C583.172 454.488 565.527 455.318 557.416 454.725C556.13 457.791 551.482 468.968 543.173 489.145C534.865 509.323 519.336 525.445 512.61 530.984Z" stroke="#6C6C6C" stroke-width="2"/>
<path d="M552.965 452.054C558.9 447.702 566.971 429.028 551.778 389.148C544.36 405.864 534.212 441.847 552.965 452.054Z" stroke="#6C6C6C" stroke-width="2"/>
<path d="M573.736 424.162C576.11 417.832 588.692 402.679 620.026 392.709C612.41 403.094 592.49 423.925 573.736 424.162Z" fill="#6C6C6C" stroke="#6C6C6C" stroke-width="2"/>
<path d="M597.178 380.543C587.445 386.952 585.012 395.281 585.012 398.643C588.672 399.929 597.949 401.017 605.783 395.083C613.131 389.516 636.981 364.105 639.908 360.978C639.981 360.901 639.907 360.777 639.808 360.815C636.177 362.226 608.534 373.065 597.178 380.543Z" fill="#6C6C6C"/>
<path d="M631.302 353.541C622.044 366.122 611.025 367.289 606.673 366.3C605.19 363.036 605.486 351.464 620.916 343.155C628.299 339.18 636.687 334.794 643.528 331.254C644.62 330.69 646.718 333.503 645.934 334.45C642.083 339.097 637.288 345.406 631.302 353.541Z" fill="#6C6C6C"/>
<path d="M597.178 380.543C587.445 386.952 585.012 395.281 585.012 398.643C588.672 399.929 597.949 401.017 605.783 395.083C613.131 389.516 636.981 364.105 639.908 360.978C639.981 360.901 639.907 360.777 639.808 360.815C636.177 362.226 608.534 373.065 597.178 380.543Z" stroke="#6C6C6C" stroke-width="2"/>
<path d="M631.302 353.541C622.044 366.122 611.025 367.289 606.673 366.3C605.19 363.036 605.486 351.464 620.916 343.155C628.299 339.18 636.687 334.794 643.528 331.254C644.62 330.69 646.718 333.503 645.934 334.45C642.083 339.097 637.288 345.406 631.302 353.541Z" stroke="#6C6C6C" stroke-width="2"/>
<path d="M630.412 304.581C630.649 312.414 626.752 328.616 624.774 335.737C609.937 314.966 622.103 317.043 626.851 301.02C629.613 291.697 636.937 287.878 642.934 286.641C644.037 286.413 644.324 287.838 643.316 288.342C637.108 291.453 630.187 297.166 630.412 304.581Z" fill="#6C6C6C" stroke="#6C6C6C" stroke-width="2"/>
<path d="M600.442 358.882C592.809 339.799 594.077 324.661 596.127 317.699C596.278 317.184 595.614 316.755 595.24 317.139C578.165 334.706 586.498 364.122 593.024 376.982C602.044 371.285 601.728 362.541 600.442 358.882Z" fill="#6C6C6C"/>
<path d="M567.208 426.536C571.659 422.481 575.932 402.145 560.977 378.169C559.592 381.532 559.612 400.899 567.208 426.536Z" fill="#6C6C6C"/>
<path d="M600.442 358.882C592.809 339.799 594.077 324.661 596.127 317.699C596.278 317.184 595.614 316.755 595.24 317.139C578.165 334.706 586.498 364.122 593.024 376.982C602.044 371.285 601.728 362.541 600.442 358.882Z" stroke="#6C6C6C" stroke-width="2"/>
<path d="M567.208 426.536C571.659 422.481 575.932 402.145 560.977 378.169C559.592 381.532 559.612 400.899 567.208 426.536Z" stroke="#6C6C6C" stroke-width="2"/>
<path d="M606.164 349.287C606.165 349.289 606.166 349.291 606.166 349.292C606.208 349.408 606.2 349.432 606.171 349.314C606.169 349.305 606.167 349.296 606.164 349.287C604.331 344.167 602.8 332.252 608.968 317.715C616.882 299.061 604.066 340.442 606.164 349.287Z" fill="#6C6C6C"/>
<path d="M608.968 317.715C602.798 332.258 604.332 344.176 606.166 349.292C606.208 349.408 606.2 349.432 606.171 349.314C604.04 340.527 616.89 299.042 608.968 317.715Z" stroke="#6C6C6C" stroke-width="2"/>
<path d="M577.297 396.269C575.616 389.445 571.521 368.456 571.046 353.263C577.871 359.495 589.166 379.653 577.297 396.269Z" fill="#6C6C6C" stroke="#6C6C6C" stroke-width="2"/>
<path d="M240.712 530.984L242.492 529.204C223.798 510.51 216.084 495.08 213.413 490.629C211.277 487.068 202.434 464.814 198.28 454.131C194.62 451.461 186.233 443.983 181.96 435.438C177.739 426.995 150.389 415.541 136.758 410.688C136.654 410.65 136.578 410.786 136.661 410.859C144.974 418.223 157.444 436.487 164.453 446.417C170.15 454.488 187.795 455.318 195.906 454.725C197.192 457.791 201.841 468.968 210.149 489.145C218.457 509.323 233.986 525.445 240.712 530.984Z" fill="#6C6C6C"/>
<path d="M200.357 452.054C194.422 447.702 186.351 429.028 201.544 389.148C208.962 405.864 219.11 441.847 200.357 452.054Z" fill="#6C6C6C"/>
<path d="M240.712 530.984L242.492 529.204C223.798 510.51 216.084 495.08 213.413 490.629C211.277 487.068 202.434 464.814 198.28 454.131C194.62 451.461 186.233 443.983 181.96 435.438C177.739 426.995 150.389 415.541 136.758 410.688C136.654 410.65 136.578 410.786 136.661 410.859C144.974 418.223 157.444 436.487 164.453 446.417C170.15 454.488 187.795 455.318 195.906 454.725C197.192 457.791 201.841 468.968 210.149 489.145C218.457 509.323 233.986 525.445 240.712 530.984Z" stroke="#6C6C6C" stroke-width="2"/>
<path d="M200.357 452.054C194.422 447.702 186.351 429.028 201.544 389.148C208.962 405.864 219.11 441.847 200.357 452.054Z" stroke="#6C6C6C" stroke-width="2"/>
<path d="M179.586 424.162C177.212 417.832 164.631 402.679 133.296 392.709C140.912 403.094 160.833 423.925 179.586 424.162Z" fill="#6C6C6C" stroke="#6C6C6C" stroke-width="2"/>
<path d="M156.144 380.543C165.877 386.952 168.31 395.281 168.31 398.643C164.651 399.929 155.373 401.017 147.539 395.083C140.191 389.516 116.341 364.105 113.414 360.978C113.342 360.901 113.416 360.777 113.515 360.815C117.146 362.226 144.789 373.065 156.144 380.543Z" fill="#6C6C6C"/>
<path d="M122.021 353.541C131.278 366.122 142.297 367.289 146.649 366.3C148.133 363.036 147.836 351.464 132.406 343.155C125.023 339.18 116.635 334.794 109.794 331.254C108.703 330.69 106.604 333.503 107.389 334.45C111.239 339.097 116.034 345.406 122.021 353.541Z" fill="#6C6C6C"/>
<path d="M156.144 380.543C165.877 386.952 168.31 395.281 168.31 398.643C164.651 399.929 155.373 401.017 147.539 395.083C140.191 389.516 116.341 364.105 113.414 360.978C113.342 360.901 113.416 360.777 113.515 360.815C117.146 362.226 144.789 373.065 156.144 380.543Z" stroke="#6C6C6C" stroke-width="2"/>
<path d="M122.021 353.541C131.278 366.122 142.297 367.289 146.649 366.3C148.133 363.036 147.836 351.464 132.406 343.155C125.023 339.18 116.635 334.794 109.794 331.254C108.703 330.69 106.604 333.503 107.389 334.45C111.239 339.097 116.034 345.406 122.021 353.541Z" stroke="#6C6C6C" stroke-width="2"/>
<path d="M122.911 304.581C122.673 312.414 126.57 328.616 128.548 335.737C143.385 314.966 131.219 317.043 126.471 301.02C123.709 291.697 116.385 287.878 110.389 286.641C109.285 286.413 108.998 287.838 110.006 288.342C116.214 291.453 123.135 297.166 122.911 304.581Z" fill="#6C6C6C" stroke="#6C6C6C" stroke-width="2"/>
<path d="M152.88 358.882C160.514 339.799 159.245 324.661 157.196 317.699C157.044 317.184 157.708 316.755 158.082 317.139C175.157 334.706 166.825 364.122 160.299 376.982C151.278 371.285 151.594 362.541 152.88 358.882Z" fill="#6C6C6C"/>
<path d="M186.114 426.536C181.663 422.481 177.39 402.145 192.345 378.169C193.73 381.532 193.71 400.899 186.114 426.536Z" fill="#6C6C6C"/>
<path d="M152.88 358.882C160.514 339.799 159.245 324.661 157.196 317.699C157.044 317.184 157.708 316.755 158.082 317.139C175.157 334.706 166.825 364.122 160.299 376.982C151.278 371.285 151.594 362.541 152.88 358.882Z" stroke="#6C6C6C" stroke-width="2"/>
<path d="M186.114 426.536C181.663 422.481 177.39 402.145 192.345 378.169C193.73 381.532 193.71 400.899 186.114 426.536Z" stroke="#6C6C6C" stroke-width="2"/>
<path d="M147.158 349.287C147.157 349.289 147.156 349.291 147.156 349.292C147.115 349.408 147.123 349.432 147.151 349.314C147.154 349.305 147.156 349.296 147.158 349.287C148.991 344.167 150.522 332.252 144.355 317.715C136.441 299.061 149.256 340.442 147.158 349.287Z" fill="#6C6C6C"/>
<path d="M144.355 317.715C150.524 332.258 148.99 344.176 147.156 349.292C147.115 349.408 147.123 349.432 147.151 349.314C149.283 340.527 136.433 299.042 144.355 317.715Z" stroke="#6C6C6C" stroke-width="2"/>
<path d="M176.025 396.269C177.707 389.445 181.801 368.456 182.276 353.263C175.451 359.495 164.156 379.653 176.025 396.269Z" fill="#6C6C6C" stroke="#6C6C6C" stroke-width="2"/>
<path d="M33.44 660.195L56.32 659.875C70.08 659.875 80.6933 661.955 88.16 666.115C95.7333 670.275 99.52 677.315 99.52 687.235C99.52 697.048 96.48 704.941 90.4 710.915C84.32 716.888 76.2133 720.355 66.08 721.315L84.32 742.595C92.1067 751.661 98.08 757.901 102.24 761.315C106.507 764.728 110.347 766.968 113.76 768.035V771.875H85.76C84.2667 769.635 80.5867 764.781 74.72 757.315L45.92 722.275C44.64 722.275 43.7333 722.221 43.2 722.115V744.355C43.2 754.808 44.0533 762.808 45.76 768.355V771.875H17.28V768.355C19.4133 762.808 20.48 755.341 20.48 745.955V688.515C20.48 677.848 19.5733 669.475 17.76 663.395V659.875C20.7467 660.088 25.9733 660.195 33.44 660.195ZM75.84 689.955C75.84 682.488 74.1867 677.368 70.88 674.595C67.68 671.715 62.6133 670.275 55.68 670.275C48.8533 670.275 44.8 670.328 43.52 670.435C43.3067 673.635 43.2 687.501 43.2 712.035C45.6533 712.355 48.6933 712.515 52.32 712.515C60.8533 712.515 66.88 710.648 70.4 706.915C74.0267 703.075 75.84 697.421 75.84 689.955ZM189.125 671.235C184.752 671.235 181.338 671.341 178.885 671.555C178.672 676.461 178.565 688.461 178.565 707.555L219.685 706.755L214.085 720.035H211.045C206.992 719.181 201.018 718.755 193.125 718.755C185.338 718.755 180.485 718.861 178.565 719.075V727.555C178.565 745.475 178.725 756.195 179.045 759.715C181.498 759.928 185.552 760.035 191.205 760.035C196.965 760.035 203.845 759.555 211.845 758.595C219.845 757.635 225.712 756.408 229.445 754.915H232.485L229.445 771.875H152.805V768.355C154.618 760.675 155.525 749.955 155.525 736.195V695.715C155.525 681.848 154.618 671.075 152.805 663.395V659.875L227.205 659.395L222.405 673.475H219.365C214.138 671.981 204.058 671.235 189.125 671.235ZM397.411 663.395V659.875H423.971V663.395C418.958 670.435 412.878 685.421 405.731 708.355C398.585 731.181 392.398 752.355 387.171 771.875L362.851 774.115C361.358 763.555 355.438 740.888 345.091 706.115L340.451 690.435C338.318 696.835 336.398 702.755 334.691 708.195C333.091 713.635 327.385 734.861 317.571 771.875L293.091 774.115C292.771 765.155 285.518 738.435 271.331 693.955C268.025 683.608 265.518 676.408 263.811 672.355C262.105 668.301 260.398 665.315 258.691 663.395V659.875H288.131V664.355C288.131 671.608 289.785 680.568 293.091 691.235L309.571 749.955C323.011 705.368 329.945 675.341 330.371 659.875H354.851C355.491 665.101 357.038 672.835 359.491 683.075C361.945 693.208 368.398 715.501 378.851 749.955C379.491 747.715 380.985 742.595 383.331 734.595C385.785 726.488 387.651 720.141 388.931 715.555C392.878 701.048 395.278 689.955 396.131 682.275C396.985 674.595 397.411 668.301 397.411 663.395ZM509.009 734.115C504.955 734.008 499.355 733.955 492.209 733.955C485.062 733.955 479.302 734.008 474.929 734.115C471.409 746.275 469.329 753.795 468.689 756.675C468.049 759.448 467.729 763.341 467.729 768.355V771.875H440.849V768.355C446.395 764.515 453.275 750.328 461.489 725.795C469.702 701.261 475.089 685.048 477.649 677.155C480.209 669.155 481.702 663.395 482.129 659.875L506.769 657.475C506.769 661.528 510.289 673.155 517.329 692.355C530.449 728.195 539.569 750.221 544.689 758.435C547.142 762.595 549.915 765.901 553.009 768.355V771.875H519.089V768.355C519.089 763.875 515.729 752.461 509.009 734.115ZM491.249 680.035C487.729 690.168 483.302 704.301 477.969 722.435H505.649C505.009 720.621 504.049 717.581 502.769 713.315C499.995 703.821 496.155 692.728 491.249 680.035ZM563.937 675.715C563.937 670.915 563.671 665.475 563.137 659.395C583.937 659.715 599.511 659.875 609.857 659.875C620.204 659.875 635.777 659.715 656.577 659.395C656.044 665.475 655.777 670.915 655.777 675.715H652.737C640.684 672.941 630.337 671.395 621.697 671.075C621.271 676.408 621.057 684.408 621.057 695.075V736.995C621.057 751.501 621.911 761.955 623.617 768.355V771.875H596.097V768.355C597.591 761.955 598.337 751.661 598.337 737.475V695.715C598.337 684.728 598.124 676.515 597.697 671.075C589.697 671.395 579.457 672.941 566.977 675.715H563.937ZM719.091 696.835V735.075C719.091 750.861 719.945 761.955 721.651 768.355V771.875H693.811V768.355C695.518 761.955 696.371 750.861 696.371 735.075V695.235C696.371 680.408 695.518 669.795 693.811 663.395V659.875H721.651V663.395C720.905 665.848 720.265 671.021 719.731 678.915C719.305 686.701 719.091 692.675 719.091 696.835Z" fill="#6C6C6C"/>
<path d="M166.44 820.115V875.875H159.16V820.115H166.44ZM251.408 820.515V875.875H244.128V834.595L225.728 875.875H220.608L202.128 834.515V875.875H194.848V820.515H202.688L223.168 866.275L243.648 820.515H251.408ZM317.034 836.435C317.034 841.075 315.434 844.941 312.234 848.035C309.087 851.075 304.26 852.595 297.754 852.595H287.034V875.875H279.754V820.115H297.754C304.047 820.115 308.82 821.635 312.074 824.675C315.38 827.715 317.034 831.635 317.034 836.435ZM297.754 846.595C301.807 846.595 304.794 845.715 306.714 843.955C308.634 842.195 309.594 839.688 309.594 836.435C309.594 829.555 305.647 826.115 297.754 826.115H287.034V846.595H297.754ZM367.362 876.435C362.189 876.435 357.469 875.235 353.202 872.835C348.935 870.381 345.549 866.995 343.042 862.675C340.589 858.301 339.362 853.395 339.362 847.955C339.362 842.515 340.589 837.635 343.042 833.315C345.549 828.941 348.935 825.555 353.202 823.155C357.469 820.701 362.189 819.475 367.362 819.475C372.589 819.475 377.335 820.701 381.602 823.155C385.869 825.555 389.229 828.915 391.682 833.235C394.135 837.555 395.362 842.461 395.362 847.955C395.362 853.448 394.135 858.355 391.682 862.675C389.229 866.995 385.869 870.381 381.602 872.835C377.335 875.235 372.589 876.435 367.362 876.435ZM367.362 870.115C371.255 870.115 374.749 869.208 377.842 867.395C380.989 865.581 383.442 862.995 385.202 859.635C387.015 856.275 387.922 852.381 387.922 847.955C387.922 843.475 387.015 839.581 385.202 836.275C383.442 832.915 381.015 830.328 377.922 828.515C374.829 826.701 371.309 825.795 367.362 825.795C363.415 825.795 359.895 826.701 356.802 828.515C353.709 830.328 351.255 832.915 349.442 836.275C347.682 839.581 346.802 843.475 346.802 847.955C346.802 852.381 347.682 856.275 349.442 859.635C351.255 862.995 353.709 865.581 356.802 867.395C359.949 869.208 363.469 870.115 367.362 870.115ZM450.333 875.875L437.053 853.075H428.253V875.875H420.973V820.115H438.973C443.186 820.115 446.733 820.835 449.613 822.275C452.546 823.715 454.733 825.661 456.173 828.115C457.613 830.568 458.333 833.368 458.333 836.515C458.333 840.355 457.213 843.741 454.973 846.675C452.786 849.608 449.479 851.555 445.053 852.515L459.053 875.875H450.333ZM428.253 847.235H438.973C442.919 847.235 445.879 846.275 447.853 844.355C449.826 842.381 450.813 839.768 450.813 836.515C450.813 833.208 449.826 830.648 447.853 828.835C445.933 827.021 442.973 826.115 438.973 826.115H428.253V847.235ZM519.964 820.115V826.035H504.764V875.875H497.484V826.035H482.204V820.115H519.964ZM562.606 876.435C558.926 876.435 555.619 875.795 552.686 874.515C549.806 873.181 547.539 871.368 545.886 869.075C544.232 866.728 543.379 864.035 543.326 860.995H551.086C551.352 863.608 552.419 865.821 554.286 867.635C556.206 869.395 558.979 870.275 562.606 870.275C566.072 870.275 568.792 869.421 570.766 867.715C572.792 865.955 573.806 863.715 573.806 860.995C573.806 858.861 573.219 857.128 572.046 855.795C570.872 854.461 569.406 853.448 567.646 852.755C565.886 852.061 563.512 851.315 560.526 850.515C556.846 849.555 553.886 848.595 551.646 847.635C549.459 846.675 547.566 845.181 545.966 843.155C544.419 841.075 543.646 838.301 543.646 834.835C543.646 831.795 544.419 829.101 545.966 826.755C547.512 824.408 549.672 822.595 552.446 821.315C555.272 820.035 558.499 819.395 562.126 819.395C567.352 819.395 571.619 820.701 574.926 823.315C578.286 825.928 580.179 829.395 580.606 833.715H572.606C572.339 831.581 571.219 829.715 569.246 828.115C567.272 826.461 564.659 825.635 561.406 825.635C558.366 825.635 555.886 826.435 553.966 828.035C552.046 829.581 551.086 831.768 551.086 834.595C551.086 836.621 551.646 838.275 552.766 839.555C553.939 840.835 555.352 841.821 557.006 842.515C558.712 843.155 561.086 843.901 564.126 844.755C567.806 845.768 570.766 846.781 573.006 847.795C575.246 848.755 577.166 850.275 578.766 852.355C580.366 854.381 581.166 857.155 581.166 860.675C581.166 863.395 580.446 865.955 579.006 868.355C577.566 870.755 575.432 872.701 572.606 874.195C569.779 875.688 566.446 876.435 562.606 876.435Z" fill="#6C6C6C"/>
</svg>
